<?xml version="1.0" encoding="UTF-8" standalone="no"?>
<!DOCTYPE svg PUBLIC "-//W3C//DTD SVG 1.1//EN"
 "http://www.w3.org/Graphics/SVG/1.1/DTD/svg11.dtd">
<!-- Generated by graphviz version 2.40.1 (20161225.0304)
 -->
<!-- Title: controllers_diagram Pages: 1 -->
<svg width="644pt" height="611pt"
 viewBox="0.00 0.00 643.76 611.00" xmlns="http://www.w3.org/2000/svg" xmlns:xlink="http://www.w3.org/1999/xlink">
<g id="graph0" class="graph" transform="scale(1 1) rotate(0) translate(4 607)">
<title>controllers_diagram</title>
<polygon fill="transparent" stroke="transparent" points="-4,4 -4,-607 639.7588,-607 639.7588,4 -4,4"/>
<!-- _diagram_info -->
<g id="node1" class="node">
<title>_diagram_info</title>
<text text-anchor="start" x="328" y="-106.6" font-family="Times,serif" font-size="13.00" fill="#000000">Controllers diagram</text>
<text text-anchor="start" x="328" y="-93.6" font-family="Times,serif" font-size="13.00" fill="#000000">Date: Apr 25 2017 &#45; 14:34</text>
<text text-anchor="start" x="328" y="-80.6" font-family="Times,serif" font-size="13.00" fill="#000000">Migration version: 20170419025704</text>
<text text-anchor="start" x="328" y="-67.6" font-family="Times,serif" font-size="13.00" fill="#000000">Generated by RailRoady 1.5.2</text>
<text text-anchor="start" x="328" y="-54.6" font-family="Times,serif" font-size="13.00" fill="#000000">http://railroady.prestonlee.com</text>
</g>
<!-- ApplicationController -->
<g id="node2" class="node">
<title>ApplicationController</title>
<path fill="none" stroke="#000000" d="M12,-480.5C12,-480.5 127.6416,-480.5 127.6416,-480.5 133.6416,-480.5 139.6416,-486.5 139.6416,-492.5 139.6416,-492.5 139.6416,-560.5 139.6416,-560.5 139.6416,-566.5 133.6416,-572.5 127.6416,-572.5 127.6416,-572.5 12,-572.5 12,-572.5 6,-572.5 0,-566.5 0,-560.5 0,-560.5 0,-492.5 0,-492.5 0,-486.5 6,-480.5 12,-480.5"/>
<text text-anchor="middle" x="69.8208" y="-557.3" font-family="Times,serif" font-size="14.00" fill="#000000">ApplicationController</text>
<polyline fill="none" stroke="#000000" points="0,-550.5 139.6416,-550.5 "/>
<polyline fill="none" stroke="#000000" points="0,-526.5 139.6416,-526.5 "/>
<polyline fill="none" stroke="#000000" points="0,-502.5 139.6416,-502.5 "/>
<text text-anchor="start" x="8" y="-487.3" font-family="Times,serif" font-size="14.00" fill="#000000">_layout</text>
</g>
<!-- ClientsController -->
<g id="node3" class="node">
<title>ClientsController</title>
<path fill="none" stroke="#000000" d="M332,-160.5C332,-160.5 421.2139,-160.5 421.2139,-160.5 427.2139,-160.5 433.2139,-166.5 433.2139,-172.5 433.2139,-172.5 433.2139,-350.5 433.2139,-350.5 433.2139,-356.5 427.2139,-362.5 421.2139,-362.5 421.2139,-362.5 332,-362.5 332,-362.5 326,-362.5 320,-356.5 320,-350.5 320,-350.5 320,-172.5 320,-172.5 320,-166.5 326,-160.5 332,-160.5"/>
<text text-anchor="middle" x="376.6069" y="-347.3" font-family="Times,serif" font-size="14.00" fill="#000000">ClientsController</text>
<polyline fill="none" stroke="#000000" points="320,-340.5 433.2139,-340.5 "/>
<text text-anchor="start" x="328" y="-325.3" font-family="Times,serif" font-size="14.00" fill="#000000">index</text>
<text text-anchor="start" x="328" y="-311.3" font-family="Times,serif" font-size="14.00" fill="#000000">destroy</text>
<text text-anchor="start" x="328" y="-297.3" font-family="Times,serif" font-size="14.00" fill="#000000">edit</text>
<text text-anchor="start" x="328" y="-283.3" font-family="Times,serif" font-size="14.00" fill="#000000">create</text>
<text text-anchor="start" x="328" y="-269.3" font-family="Times,serif" font-size="14.00" fill="#000000">new</text>
<text text-anchor="start" x="328" y="-255.3" font-family="Times,serif" font-size="14.00" fill="#000000">show</text>
<text text-anchor="start" x="328" y="-241.3" font-family="Times,serif" font-size="14.00" fill="#000000">update</text>
<polyline fill="none" stroke="#000000" points="320,-234.5 433.2139,-234.5 "/>
<polyline fill="none" stroke="#000000" points="320,-210.5 433.2139,-210.5 "/>
<text text-anchor="start" x="328" y="-195.3" font-family="Times,serif" font-size="14.00" fill="#000000">_layout</text>
<text text-anchor="start" x="328" y="-181.3" font-family="Times,serif" font-size="14.00" fill="#000000">client_params</text>
<text text-anchor="start" x="328" y="-167.3" font-family="Times,serif" font-size="14.00" fill="#000000">set_client</text>
</g>
<!-- CondosController -->
<g id="node4" class="node">
<title>CondosController</title>
<path fill="none" stroke="#000000" d="M188,-368.5C188,-368.5 280.3311,-368.5 280.3311,-368.5 286.3311,-368.5 292.3311,-374.5 292.3311,-380.5 292.3311,-380.5 292.3311,-558.5 292.3311,-558.5 292.3311,-564.5 286.3311,-570.5 280.3311,-570.5 280.3311,-570.5 188,-570.5 188,-570.5 182,-570.5 176,-564.5 176,-558.5 176,-558.5 176,-380.5 176,-380.5 176,-374.5 182,-368.5 188,-368.5"/>
<text text-anchor="middle" x="234.1655" y="-555.3" font-family="Times,serif" font-size="14.00" fill="#000000">CondosController</text>
<polyline fill="none" stroke="#000000" points="176,-548.5 292.3311,-548.5 "/>
<text text-anchor="start" x="184" y="-533.3" font-family="Times,serif" font-size="14.00" fill="#000000">index</text>
<text text-anchor="start" x="184" y="-519.3" font-family="Times,serif" font-size="14.00" fill="#000000">destroy</text>
<text text-anchor="start" x="184" y="-505.3" font-family="Times,serif" font-size="14.00" fill="#000000">edit</text>
<text text-anchor="start" x="184" y="-491.3" font-family="Times,serif" font-size="14.00" fill="#000000">create</text>
<text text-anchor="start" x="184" y="-477.3" font-family="Times,serif" font-size="14.00" fill="#000000">new</text>
<text text-anchor="start" x="184" y="-463.3" font-family="Times,serif" font-size="14.00" fill="#000000">show</text>
<text text-anchor="start" x="184" y="-449.3" font-family="Times,serif" font-size="14.00" fill="#000000">update</text>
<polyline fill="none" stroke="#000000" points="176,-442.5 292.3311,-442.5 "/>
<polyline fill="none" stroke="#000000" points="176,-418.5 292.3311,-418.5 "/>
<text text-anchor="start" x="184" y="-403.3" font-family="Times,serif" font-size="14.00" fill="#000000">_layout</text>
<text text-anchor="start" x="184" y="-389.3" font-family="Times,serif" font-size="14.00" fill="#000000">condo_params</text>
<text text-anchor="start" x="184" y="-375.3" font-family="Times,serif" font-size="14.00" fill="#000000">set_condo</text>
</g>
<!-- DebtsController -->
<g id="node5" class="node">
<title>DebtsController</title>
<path fill="none" stroke="#000000" d="M44,-240.5C44,-240.5 126.207,-240.5 126.207,-240.5 132.207,-240.5 138.207,-246.5 138.207,-252.5 138.207,-252.5 138.207,-430.5 138.207,-430.5 138.207,-436.5 132.207,-442.5 126.207,-442.5 126.207,-442.5 44,-442.5 44,-442.5 38,-442.5 32,-436.5 32,-430.5 32,-430.5 32,-252.5 32,-252.5 32,-246.5 38,-240.5 44,-240.5"/>
<text text-anchor="middle" x="85.1035" y="-427.3" font-family="Times,serif" font-size="14.00" fill="#000000">DebtsController</text>
<polyline fill="none" stroke="#000000" points="32,-420.5 138.207,-420.5 "/>
<text text-anchor="start" x="40" y="-405.3" font-family="Times,serif" font-size="14.00" fill="#000000">index</text>
<text text-anchor="start" x="40" y="-391.3" font-family="Times,serif" font-size="14.00" fill="#000000">destroy</text>
<text text-anchor="start" x="40" y="-377.3" font-family="Times,serif" font-size="14.00" fill="#000000">edit</text>
<text text-anchor="start" x="40" y="-363.3" font-family="Times,serif" font-size="14.00" fill="#000000">create</text>
<text text-anchor="start" x="40" y="-349.3" font-family="Times,serif" font-size="14.00" fill="#000000">new</text>
<text text-anchor="start" x="40" y="-335.3" font-family="Times,serif" font-size="14.00" fill="#000000">show</text>
<text text-anchor="start" x="40" y="-321.3" font-family="Times,serif" font-size="14.00" fill="#000000">update</text>
<polyline fill="none" stroke="#000000" points="32,-314.5 138.207,-314.5 "/>
<polyline fill="none" stroke="#000000" points="32,-290.5 138.207,-290.5 "/>
<text text-anchor="start" x="40" y="-275.3" font-family="Times,serif" font-size="14.00" fill="#000000">_layout</text>
<text text-anchor="start" x="40" y="-261.3" font-family="Times,serif" font-size="14.00" fill="#000000">debt_params</text>
<text text-anchor="start" x="40" y="-247.3" font-family="Times,serif" font-size="14.00" fill="#000000">set_debt</text>
</g>
<!-- EmitNoticesController -->
<g id="node6" class="node">
<title>EmitNoticesController</title>
<path fill="none" stroke="#000000" d="M476,-160.5C476,-160.5 595.5313,-160.5 595.5313,-160.5 601.5313,-160.5 607.5313,-166.5 607.5313,-172.5 607.5313,-172.5 607.5313,-252.5 607.5313,-252.5 607.5313,-258.5 601.5313,-264.5 595.5313,-264.5 595.5313,-264.5 476,-264.5 476,-264.5 470,-264.5 464,-258.5 464,-252.5 464,-252.5 464,-172.5 464,-172.5 464,-166.5 470,-160.5 476,-160.5"/>
<text text-anchor="middle" x="535.7656" y="-249.3" font-family="Times,serif" font-size="14.00" fill="#000000">EmitNoticesController</text>
<polyline fill="none" stroke="#000000" points="464,-242.5 607.5313,-242.5 "/>
<text text-anchor="start" x="472" y="-227.3" font-family="Times,serif" font-size="14.00" fill="#000000">emit</text>
<text text-anchor="start" x="472" y="-213.3" font-family="Times,serif" font-size="14.00" fill="#000000">index</text>
<polyline fill="none" stroke="#000000" points="464,-206.5 607.5313,-206.5 "/>
<polyline fill="none" stroke="#000000" points="464,-182.5 607.5313,-182.5 "/>
<text text-anchor="start" x="472" y="-167.3" font-family="Times,serif" font-size="14.00" fill="#000000">_layout</text>
</g>
<!-- HomeController -->
<g id="node7" class="node">
<title>HomeController</title>
<path fill="none" stroke="#000000" d="M540,-304.5C540,-304.5 623.7588,-304.5 623.7588,-304.5 629.7588,-304.5 635.7588,-310.5 635.7588,-316.5 635.7588,-316.5 635.7588,-384.5 635.7588,-384.5 635.7588,-390.5 629.7588,-396.5 623.7588,-396.5 623.7588,-396.5 540,-396.5 540,-396.5 534,-396.5 528,-390.5 528,-384.5 528,-384.5 528,-316.5 528,-316.5 528,-310.5 534,-304.5 540,-304.5"/>
<text text-anchor="middle" x="581.8794" y="-381.3" font-family="Times,serif" font-size="14.00" fill="#000000">HomeController</text>
<polyline fill="none" stroke="#000000" points="528,-374.5 635.7588,-374.5 "/>
<polyline fill="none" stroke="#000000" points="528,-350.5 635.7588,-350.5 "/>
<polyline fill="none" stroke="#000000" points="528,-326.5 635.7588,-326.5 "/>
<text text-anchor="start" x="536" y="-311.3" font-family="Times,serif" font-size="14.00" fill="#000000">_layout</text>
</g>
<!-- ImportsController -->
<g id="node8" class="node">
<title>ImportsController</title>
<path fill="none" stroke="#000000" d="M44,-80.5C44,-80.5 137.0967,-80.5 137.0967,-80.5 143.0967,-80.5 149.0967,-86.5 149.0967,-92.5 149.0967,-92.5 149.0967,-200.5 149.0967,-200.5 149.0967,-206.5 143.0967,-212.5 137.0967,-212.5 137.0967,-212.5 44,-212.5 44,-212.5 38,-212.5 32,-206.5 32,-200.5 32,-200.5 32,-92.5 32,-92.5 32,-86.5 38,-80.5 44,-80.5"/>
<text text-anchor="middle" x="90.5483" y="-197.3" font-family="Times,serif" font-size="14.00" fill="#000000">ImportsController</text>
<polyline fill="none" stroke="#000000" points="32,-190.5 149.0967,-190.5 "/>
<text text-anchor="start" x="40" y="-175.3" font-family="Times,serif" font-size="14.00" fill="#000000">create</text>
<text text-anchor="start" x="40" y="-161.3" font-family="Times,serif" font-size="14.00" fill="#000000">index</text>
<text text-anchor="start" x="40" y="-147.3" font-family="Times,serif" font-size="14.00" fill="#000000">new</text>
<polyline fill="none" stroke="#000000" points="32,-140.5 149.0967,-140.5 "/>
<polyline fill="none" stroke="#000000" points="32,-116.5 149.0967,-116.5 "/>
<text text-anchor="start" x="40" y="-101.3" font-family="Times,serif" font-size="14.00" fill="#000000">_layout</text>
<text text-anchor="start" x="40" y="-87.3" font-family="Times,serif" font-size="14.00" fill="#000000">import_params</text>
</g>
<!-- SecuredController -->
<g id="node9" class="node">
<title>SecuredController</title>
<path fill="none" stroke="#000000" d="M188,-.5C188,-.5 282.6348,-.5 282.6348,-.5 288.6348,-.5 294.6348,-6.5 294.6348,-12.5 294.6348,-12.5 294.6348,-80.5 294.6348,-80.5 294.6348,-86.5 288.6348,-92.5 282.6348,-92.5 282.6348,-92.5 188,-92.5 188,-92.5 182,-92.5 176,-86.5 176,-80.5 176,-80.5 176,-12.5 176,-12.5 176,-6.5 182,-.5 188,-.5"/>
<text text-anchor="middle" x="235.3174" y="-77.3" font-family="Times,serif" font-size="14.00" fill="#000000">SecuredController</text>
<polyline fill="none" stroke="#000000" points="176,-70.5 294.6348,-70.5 "/>
<polyline fill="none" stroke="#000000" points="176,-46.5 294.6348,-46.5 "/>
<polyline fill="none" stroke="#000000" points="176,-22.5 294.6348,-22.5 "/>
<text text-anchor="start" x="184" y="-7.3" font-family="Times,serif" font-size="14.00" fill="#000000">_layout</text>
</g>
<!-- TenantsController -->
<g id="node10" class="node">
<title>TenantsController</title>
<path fill="none" stroke="#000000" d="M188,-128.5C188,-128.5 280.8848,-128.5 280.8848,-128.5 286.8848,-128.5 292.8848,-134.5 292.8848,-140.5 292.8848,-140.5 292.8848,-318.5 292.8848,-318.5 292.8848,-324.5 286.8848,-330.5 280.8848,-330.5 280.8848,-330.5 188,-330.5 188,-330.5 182,-330.5 176,-324.5 176,-318.5 176,-318.5 176,-140.5 176,-140.5 176,-134.5 182,-128.5 188,-128.5"/>
<text text-anchor="middle" x="234.4424" y="-315.3" font-family="Times,serif" font-size="14.00" fill="#000000">TenantsController</text>
<polyline fill="none" stroke="#000000" points="176,-308.5 292.8848,-308.5 "/>
<text text-anchor="start" x="184" y="-293.3" font-family="Times,serif" font-size="14.00" fill="#000000">index</text>
<text text-anchor="start" x="184" y="-279.3" font-family="Times,serif" font-size="14.00" fill="#000000">destroy</text>
<text text-anchor="start" x="184" y="-265.3" font-family="Times,serif" font-size="14.00" fill="#000000">edit</text>
<text text-anchor="start" x="184" y="-251.3" font-family="Times,serif" font-size="14.00" fill="#000000">create</text>
<text text-anchor="start" x="184" y="-237.3" font-family="Times,serif" font-size="14.00" fill="#000000">new</text>
<text text-anchor="start" x="184" y="-223.3" font-family="Times,serif" font-size="14.00" fill="#000000">show</text>
<text text-anchor="start" x="184" y="-209.3" font-family="Times,serif" font-size="14.00" fill="#000000">update</text>
<polyline fill="none" stroke="#000000" points="176,-202.5 292.8848,-202.5 "/>
<polyline fill="none" stroke="#000000" points="176,-178.5 292.8848,-178.5 "/>
<text text-anchor="start" x="184" y="-163.3" font-family="Times,serif" font-size="14.00" fill="#000000">_layout</text>
<text text-anchor="start" x="184" y="-149.3" font-family="Times,serif" font-size="14.00" fill="#000000">set_tenant</text>
<text text-anchor="start" x="184" y="-135.3" font-family="Times,serif" font-size="14.00" fill="#000000">tenant_params</text>
</g>
<!-- UnitsController -->
<g id="node11" class="node">
<title>UnitsController</title>
<path fill="none" stroke="#000000" d="M412,-400.5C412,-400.5 491.8828,-400.5 491.8828,-400.5 497.8828,-400.5 503.8828,-406.5 503.8828,-412.5 503.8828,-412.5 503.8828,-590.5 503.8828,-590.5 503.8828,-596.5 497.8828,-602.5 491.8828,-602.5 491.8828,-602.5 412,-602.5 412,-602.5 406,-602.5 400,-596.5 400,-590.5 400,-590.5 400,-412.5 400,-412.5 400,-406.5 406,-400.5 412,-400.5"/>
<text text-anchor="middle" x="451.9414" y="-587.3" font-family="Times,serif" font-size="14.00" fill="#000000">UnitsController</text>
<polyline fill="none" stroke="#000000" points="400,-580.5 503.8828,-580.5 "/>
<text text-anchor="start" x="408" y="-565.3" font-family="Times,serif" font-size="14.00" fill="#000000">index</text>
<text text-anchor="start" x="408" y="-551.3" font-family="Times,serif" font-size="14.00" fill="#000000">destroy</text>
<text text-anchor="start" x="408" y="-537.3" font-family="Times,serif" font-size="14.00" fill="#000000">edit</text>
<text text-anchor="start" x="408" y="-523.3" font-family="Times,serif" font-size="14.00" fill="#000000">create</text>
<text text-anchor="start" x="408" y="-509.3" font-family="Times,serif" font-size="14.00" fill="#000000">new</text>
<text text-anchor="start" x="408" y="-495.3" font-family="Times,serif" font-size="14.00" fill="#000000">show</text>
<text text-anchor="start" x="408" y="-481.3" font-family="Times,serif" font-size="14.00" fill="#000000">update</text>
<polyline fill="none" stroke="#000000" points="400,-474.5 503.8828,-474.5 "/>
<polyline fill="none" stroke="#000000" points="400,-450.5 503.8828,-450.5 "/>
<text text-anchor="start" x="408" y="-435.3" font-family="Times,serif" font-size="14.00" fill="#000000">_layout</text>
<text text-anchor="start" x="408" y="-421.3" font-family="Times,serif" font-size="14.00" fill="#000000">set_unit</text>
<text text-anchor="start" x="408" y="-407.3" font-family="Times,serif" font-size="14.00" fill="#000000">unit_params</text>
</g>
</g>
</svg>
