<?xml version="1.0" encoding="UTF-8" standalone="no"?>
<!DOCTYPE svg PUBLIC "-//W3C//DTD SVG 1.1//EN"
 "http://www.w3.org/Graphics/SVG/1.1/DTD/svg11.dtd">
<!-- Generated by graphviz version 2.40.1 (20161225.0304)
 -->
<!-- Title: models_diagram Pages: 1 -->
<svg width="2148pt" height="221pt"
 viewBox="0.00 0.00 2148.32 221.00" xmlns="http://www.w3.org/2000/svg" xmlns:xlink="http://www.w3.org/1999/xlink">
<g id="graph0" class="graph" transform="scale(1 1) rotate(0) translate(4 217)">
<title>models_diagram</title>
<polygon fill="transparent" stroke="transparent" points="-4,4 -4,-217 2144.3225,-217 2144.3225,4 -4,4"/>
<!-- _diagram_info -->
<g id="node1" class="node">
<title>_diagram_info</title>
<text text-anchor="start" x="8" y="-128.6" font-family="Times,serif" font-size="13.00" fill="#000000">Models diagram</text>
<text text-anchor="start" x="8" y="-115.6" font-family="Times,serif" font-size="13.00" fill="#000000">Date: Apr 25 2017 &#45; 14:34</text>
<text text-anchor="start" x="8" y="-102.6" font-family="Times,serif" font-size="13.00" fill="#000000">Migration version: 20170419025704</text>
<text text-anchor="start" x="8" y="-89.6" font-family="Times,serif" font-size="13.00" fill="#000000">Generated by RailRoady 1.5.2</text>
<text text-anchor="start" x="8" y="-76.6" font-family="Times,serif" font-size="13.00" fill="#000000">http://railroady.prestonlee.com</text>
</g>
<!-- Client -->
<g id="node2" class="node">
<title>Client</title>
<path fill="none" stroke="#000000" d="M237.8254,-28.5C237.8254,-28.5 461.55,-28.5 461.55,-28.5 467.55,-28.5 473.55,-34.5 473.55,-40.5 473.55,-40.5 473.55,-172.5 473.55,-172.5 473.55,-178.5 467.55,-184.5 461.55,-184.5 461.55,-184.5 237.8254,-184.5 237.8254,-184.5 231.8254,-184.5 225.8254,-178.5 225.8254,-172.5 225.8254,-172.5 225.8254,-40.5 225.8254,-40.5 225.8254,-34.5 231.8254,-28.5 237.8254,-28.5"/>
<text text-anchor="middle" x="349.6877" y="-169.3" font-family="Times,serif" font-size="14.00" fill="#000000">Client</text>
<polyline fill="none" stroke="#000000" points="225.8254,-162.5 473.55,-162.5 "/>
<text text-anchor="start" x="233.8254" y="-147.3" font-family="Times,serif" font-size="14.00" fill="#000000">updated_at :timestamp without time zone</text>
<text text-anchor="start" x="233.8254" y="-133.3" font-family="Times,serif" font-size="14.00" fill="#000000">name :character varying</text>
<text text-anchor="start" x="233.8254" y="-119.3" font-family="Times,serif" font-size="14.00" fill="#000000">contact_name :character varying</text>
<text text-anchor="start" x="233.8254" y="-105.3" font-family="Times,serif" font-size="14.00" fill="#000000">contact_phone :character varying</text>
<text text-anchor="start" x="233.8254" y="-91.3" font-family="Times,serif" font-size="14.00" fill="#000000">address :text</text>
<text text-anchor="start" x="233.8254" y="-77.3" font-family="Times,serif" font-size="14.00" fill="#000000">default_fine :double precision</text>
<text text-anchor="start" x="233.8254" y="-63.3" font-family="Times,serif" font-size="14.00" fill="#000000">default_interest :double precision</text>
<text text-anchor="start" x="233.8254" y="-49.3" font-family="Times,serif" font-size="14.00" fill="#000000">created_at :timestamp without time zone</text>
<text text-anchor="start" x="233.8254" y="-35.3" font-family="Times,serif" font-size="14.00" fill="#000000">id :integer</text>
</g>
<!-- Condo -->
<g id="node3" class="node">
<title>Condo</title>
<path fill="none" stroke="#000000" d="M503.8254,-49.5C503.8254,-49.5 727.55,-49.5 727.55,-49.5 733.55,-49.5 739.55,-55.5 739.55,-61.5 739.55,-61.5 739.55,-151.5 739.55,-151.5 739.55,-157.5 733.55,-163.5 727.55,-163.5 727.55,-163.5 503.8254,-163.5 503.8254,-163.5 497.8254,-163.5 491.8254,-157.5 491.8254,-151.5 491.8254,-151.5 491.8254,-61.5 491.8254,-61.5 491.8254,-55.5 497.8254,-49.5 503.8254,-49.5"/>
<text text-anchor="middle" x="615.6877" y="-148.3" font-family="Times,serif" font-size="14.00" fill="#000000">Condo</text>
<polyline fill="none" stroke="#000000" points="491.8254,-141.5 739.55,-141.5 "/>
<text text-anchor="start" x="499.8254" y="-126.3" font-family="Times,serif" font-size="14.00" fill="#000000">id :integer</text>
<text text-anchor="start" x="499.8254" y="-112.3" font-family="Times,serif" font-size="14.00" fill="#000000">name :character varying</text>
<text text-anchor="start" x="499.8254" y="-98.3" font-family="Times,serif" font-size="14.00" fill="#000000">address :text</text>
<text text-anchor="start" x="499.8254" y="-84.3" font-family="Times,serif" font-size="14.00" fill="#000000">client_id :integer</text>
<text text-anchor="start" x="499.8254" y="-70.3" font-family="Times,serif" font-size="14.00" fill="#000000">created_at :timestamp without time zone</text>
<text text-anchor="start" x="499.8254" y="-56.3" font-family="Times,serif" font-size="14.00" fill="#000000">updated_at :timestamp without time zone</text>
</g>
<!-- Debt -->
<g id="node4" class="node">
<title>Debt</title>
<path fill="none" stroke="#000000" d="M769.8254,-14.5C769.8254,-14.5 993.55,-14.5 993.55,-14.5 999.55,-14.5 1005.55,-20.5 1005.55,-26.5 1005.55,-26.5 1005.55,-186.5 1005.55,-186.5 1005.55,-192.5 999.55,-198.5 993.55,-198.5 993.55,-198.5 769.8254,-198.5 769.8254,-198.5 763.8254,-198.5 757.8254,-192.5 757.8254,-186.5 757.8254,-186.5 757.8254,-26.5 757.8254,-26.5 757.8254,-20.5 763.8254,-14.5 769.8254,-14.5"/>
<text text-anchor="middle" x="881.6877" y="-183.3" font-family="Times,serif" font-size="14.00" fill="#000000">Debt</text>
<polyline fill="none" stroke="#000000" points="757.8254,-176.5 1005.55,-176.5 "/>
<text text-anchor="start" x="765.8254" y="-161.3" font-family="Times,serif" font-size="14.00" fill="#000000">notified :boolean</text>
<text text-anchor="start" x="765.8254" y="-147.3" font-family="Times,serif" font-size="14.00" fill="#000000">description :character varying</text>
<text text-anchor="start" x="765.8254" y="-133.3" font-family="Times,serif" font-size="14.00" fill="#000000">original_amount :double precision</text>
<text text-anchor="start" x="765.8254" y="-119.3" font-family="Times,serif" font-size="14.00" fill="#000000">due_date :date</text>
<text text-anchor="start" x="765.8254" y="-105.3" font-family="Times,serif" font-size="14.00" fill="#000000">debt_type :character varying</text>
<text text-anchor="start" x="765.8254" y="-91.3" font-family="Times,serif" font-size="14.00" fill="#000000">unit_id :integer</text>
<text text-anchor="start" x="765.8254" y="-77.3" font-family="Times,serif" font-size="14.00" fill="#000000">tenant_id :integer</text>
<text text-anchor="start" x="765.8254" y="-63.3" font-family="Times,serif" font-size="14.00" fill="#000000">created_at :timestamp without time zone</text>
<text text-anchor="start" x="765.8254" y="-49.3" font-family="Times,serif" font-size="14.00" fill="#000000">updated_at :timestamp without time zone</text>
<text text-anchor="start" x="765.8254" y="-35.3" font-family="Times,serif" font-size="14.00" fill="#000000">paid :boolean</text>
<text text-anchor="start" x="765.8254" y="-21.3" font-family="Times,serif" font-size="14.00" fill="#000000">id :integer</text>
</g>
<!-- Import -->
<g id="node5" class="node">
<title>Import</title>
<path fill="none" stroke="#000000" d="M1035.8254,-56.5C1035.8254,-56.5 1259.55,-56.5 1259.55,-56.5 1265.55,-56.5 1271.55,-62.5 1271.55,-68.5 1271.55,-68.5 1271.55,-144.5 1271.55,-144.5 1271.55,-150.5 1265.55,-156.5 1259.55,-156.5 1259.55,-156.5 1035.8254,-156.5 1035.8254,-156.5 1029.8254,-156.5 1023.8254,-150.5 1023.8254,-144.5 1023.8254,-144.5 1023.8254,-68.5 1023.8254,-68.5 1023.8254,-62.5 1029.8254,-56.5 1035.8254,-56.5"/>
<text text-anchor="middle" x="1147.6877" y="-141.3" font-family="Times,serif" font-size="14.00" fill="#000000">Import</text>
<polyline fill="none" stroke="#000000" points="1023.8254,-134.5 1271.55,-134.5 "/>
<text text-anchor="start" x="1031.8254" y="-119.3" font-family="Times,serif" font-size="14.00" fill="#000000">id :integer</text>
<text text-anchor="start" x="1031.8254" y="-105.3" font-family="Times,serif" font-size="14.00" fill="#000000">debt_report :character varying</text>
<text text-anchor="start" x="1031.8254" y="-91.3" font-family="Times,serif" font-size="14.00" fill="#000000">status :character varying</text>
<text text-anchor="start" x="1031.8254" y="-77.3" font-family="Times,serif" font-size="14.00" fill="#000000">created_at :timestamp without time zone</text>
<text text-anchor="start" x="1031.8254" y="-63.3" font-family="Times,serif" font-size="14.00" fill="#000000">updated_at :timestamp without time zone</text>
</g>
<!-- Tenant -->
<g id="node6" class="node">
<title>Tenant</title>
<path fill="none" stroke="#000000" d="M1301.8254,-35.5C1301.8254,-35.5 1525.55,-35.5 1525.55,-35.5 1531.55,-35.5 1537.55,-41.5 1537.55,-47.5 1537.55,-47.5 1537.55,-165.5 1537.55,-165.5 1537.55,-171.5 1531.55,-177.5 1525.55,-177.5 1525.55,-177.5 1301.8254,-177.5 1301.8254,-177.5 1295.8254,-177.5 1289.8254,-171.5 1289.8254,-165.5 1289.8254,-165.5 1289.8254,-47.5 1289.8254,-47.5 1289.8254,-41.5 1295.8254,-35.5 1301.8254,-35.5"/>
<text text-anchor="middle" x="1413.6877" y="-162.3" font-family="Times,serif" font-size="14.00" fill="#000000">Tenant</text>
<polyline fill="none" stroke="#000000" points="1289.8254,-155.5 1537.55,-155.5 "/>
<text text-anchor="start" x="1297.8254" y="-140.3" font-family="Times,serif" font-size="14.00" fill="#000000">email :character varying</text>
<text text-anchor="start" x="1297.8254" y="-126.3" font-family="Times,serif" font-size="14.00" fill="#000000">name :character varying</text>
<text text-anchor="start" x="1297.8254" y="-112.3" font-family="Times,serif" font-size="14.00" fill="#000000">billing_address :text</text>
<text text-anchor="start" x="1297.8254" y="-98.3" font-family="Times,serif" font-size="14.00" fill="#000000">ssn :character varying</text>
<text text-anchor="start" x="1297.8254" y="-84.3" font-family="Times,serif" font-size="14.00" fill="#000000">phone_number :character varying</text>
<text text-anchor="start" x="1297.8254" y="-70.3" font-family="Times,serif" font-size="14.00" fill="#000000">created_at :timestamp without time zone</text>
<text text-anchor="start" x="1297.8254" y="-56.3" font-family="Times,serif" font-size="14.00" fill="#000000">updated_at :timestamp without time zone</text>
<text text-anchor="start" x="1297.8254" y="-42.3" font-family="Times,serif" font-size="14.00" fill="#000000">id :integer</text>
</g>
<!-- Unit -->
<g id="node7" class="node">
<title>Unit</title>
<path fill="none" stroke="#000000" d="M1567.8254,-42.5C1567.8254,-42.5 1791.55,-42.5 1791.55,-42.5 1797.55,-42.5 1803.55,-48.5 1803.55,-54.5 1803.55,-54.5 1803.55,-158.5 1803.55,-158.5 1803.55,-164.5 1797.55,-170.5 1791.55,-170.5 1791.55,-170.5 1567.8254,-170.5 1567.8254,-170.5 1561.8254,-170.5 1555.8254,-164.5 1555.8254,-158.5 1555.8254,-158.5 1555.8254,-54.5 1555.8254,-54.5 1555.8254,-48.5 1561.8254,-42.5 1567.8254,-42.5"/>
<text text-anchor="middle" x="1679.6877" y="-155.3" font-family="Times,serif" font-size="14.00" fill="#000000">Unit</text>
<polyline fill="none" stroke="#000000" points="1555.8254,-148.5 1803.55,-148.5 "/>
<text text-anchor="start" x="1563.8254" y="-133.3" font-family="Times,serif" font-size="14.00" fill="#000000">condo_id :integer</text>
<text text-anchor="start" x="1563.8254" y="-119.3" font-family="Times,serif" font-size="14.00" fill="#000000">number :character varying</text>
<text text-anchor="start" x="1563.8254" y="-105.3" font-family="Times,serif" font-size="14.00" fill="#000000">building_name :character varying</text>
<text text-anchor="start" x="1563.8254" y="-91.3" font-family="Times,serif" font-size="14.00" fill="#000000">id :integer</text>
<text text-anchor="start" x="1563.8254" y="-77.3" font-family="Times,serif" font-size="14.00" fill="#000000">tenant_id :integer</text>
<text text-anchor="start" x="1563.8254" y="-63.3" font-family="Times,serif" font-size="14.00" fill="#000000">created_at :timestamp without time zone</text>
<text text-anchor="start" x="1563.8254" y="-49.3" font-family="Times,serif" font-size="14.00" fill="#000000">updated_at :timestamp without time zone</text>
</g>
<!-- User -->
<g id="node8" class="node">
<title>User</title>
<path fill="none" stroke="#000000" d="M1833.053,-.5C1833.053,-.5 2128.3225,-.5 2128.3225,-.5 2134.3225,-.5 2140.3225,-6.5 2140.3225,-12.5 2140.3225,-12.5 2140.3225,-200.5 2140.3225,-200.5 2140.3225,-206.5 2134.3225,-212.5 2128.3225,-212.5 2128.3225,-212.5 1833.053,-212.5 1833.053,-212.5 1827.053,-212.5 1821.053,-206.5 1821.053,-200.5 1821.053,-200.5 1821.053,-12.5 1821.053,-12.5 1821.053,-6.5 1827.053,-.5 1833.053,-.5"/>
<text text-anchor="middle" x="1980.6877" y="-197.3" font-family="Times,serif" font-size="14.00" fill="#000000">User</text>
<polyline fill="none" stroke="#000000" points="1821.053,-190.5 2140.3225,-190.5 "/>
<text text-anchor="start" x="1829.053" y="-175.3" font-family="Times,serif" font-size="14.00" fill="#000000">updated_at :timestamp without time zone</text>
<text text-anchor="start" x="1829.053" y="-161.3" font-family="Times,serif" font-size="14.00" fill="#000000">email :character varying</text>
<text text-anchor="start" x="1829.053" y="-147.3" font-family="Times,serif" font-size="14.00" fill="#000000">encrypted_password :character varying</text>
<text text-anchor="start" x="1829.053" y="-133.3" font-family="Times,serif" font-size="14.00" fill="#000000">reset_password_token :character varying</text>
<text text-anchor="start" x="1829.053" y="-119.3" font-family="Times,serif" font-size="14.00" fill="#000000">reset_password_sent_at :timestamp without time zone</text>
<text text-anchor="start" x="1829.053" y="-105.3" font-family="Times,serif" font-size="14.00" fill="#000000">remember_created_at :timestamp without time zone</text>
<text text-anchor="start" x="1829.053" y="-91.3" font-family="Times,serif" font-size="14.00" fill="#000000">sign_in_count :integer</text>
<text text-anchor="start" x="1829.053" y="-77.3" font-family="Times,serif" font-size="14.00" fill="#000000">current_sign_in_at :timestamp without time zone</text>
<text text-anchor="start" x="1829.053" y="-63.3" font-family="Times,serif" font-size="14.00" fill="#000000">last_sign_in_at :timestamp without time zone</text>
<text text-anchor="start" x="1829.053" y="-49.3" font-family="Times,serif" font-size="14.00" fill="#000000">current_sign_in_ip :inet</text>
<text text-anchor="start" x="1829.053" y="-35.3" font-family="Times,serif" font-size="14.00" fill="#000000">last_sign_in_ip :inet</text>
<text text-anchor="start" x="1829.053" y="-21.3" font-family="Times,serif" font-size="14.00" fill="#000000">created_at :timestamp without time zone</text>
<text text-anchor="start" x="1829.053" y="-7.3" font-family="Times,serif" font-size="14.00" fill="#000000">id :integer</text>
</g>
</g>
</svg>
